# AST/ASF file generated using VICON BodyLanguage
# -----------------------------------------------
:version 1.10
:name VICON
:units
  mass 1.0
  length 0.45
  angle deg
:documentation
   .ast/.asf automatically generated from VICON data using
   VICON BodyBuilder and BodyLanguage model FoxedUp or BRILLIANT.MOD
:root
   order TX TY TZ RX RY RZ
   axis XYZ
   position 0 0 0  
   orientation 0 0 0 
:bonedata
  begin
     id 1 
     name lhipjoint
     direction 0.734343 -0.627749 0.258209 
     length 2.5437 
     axis 0 0 0  XYZ
  end
  begin
     id 2 
     name lfemur
     direction 0.34202 -0.939693 0  
     length 6.7391  
     axis 0 0 20  XYZ
    dof rx ry rz
    limits (-160.0 20.0)
           (-70.0 70.0)
           (-60.0 70.0)
  end
  begin
     id 3 
     name ltibia
     direction 0.34202 -0.939693 0   
     length 7.21536   
     axis 0 0 20   XYZ
    dof rx
    limits (-10.0 170.0)
  end
  begin
     id 4 
     name lfoot
     direction 0.0489572 -0.134509 0.989702   
     length 1.61313   
     axis -90 7.62852e-016 20   XYZ
    dof rx rz
    limits (-45.0 90.0)
           (-70.0 20.0)
  end
  begin
     id 5 
     name ltoes
     direction 1.53451e-011 -4.21692e-011 1   
     length 0.823104   
     axis -90 7.62852e-016 20   XYZ
    dof rx
    limits (-90.0 20.0)
  end
  begin
     id 6 
     name rhipjoint
     direction -0.746398 -0.615468 0.253157   
     length 2.59446  
     axis 0 0 0  XYZ 
  end
  begin
     id 7 
     name rfemur
     direction -0.34202 -0.939693 0   
     length 6.7075   
     axis 0 0 -20   XYZ
    dof rx ry rz
    limits (-160.0 20.0)
           (-70.0 70.0)
           (-70.0 60.0)
  end
  begin
     id 8 
     name rtibia
     direction -0.34202 -0.939693 0   
     length 7.27262   
     axis 0 0 -20   XYZ
    dof rx
    limits (-10.0 170.0)
 end
 begin
     id 9 
     name rfoot
     direction -0.0455203 -0.125066 0.991104   
     length 1.91095  
     axis -90 -7.62852e-016 -20   XYZ
    dof rx rz
    limits (-45.0 90.0)
           (-20.0 70.0)
  end
  begin
     id 10 
     name rtoes
     direction -1.53601e-011 -4.21913e-011 1   
     length 0.969037   
     axis -90 -7.62852e-016 -20   XYZ
    dof rx
    limits (-90.0 20.0)
  end
  begin
     id 11 
     name lowerback
     direction 0.0181546 0.999122 -0.0377542   
     length 1.99916   
     axis 0 0 0   XYZ
    dof rx ry rz
    limits (-20.0 45.0)
           (-30.0 30.0)
           (-30.0 30.0)
  end
  begin
     id 12 
     name upperback
     direction 0.0203486 0.99589 0.0882534   
     length 1.951   
     axis 0 0 0   XYZ
    dof rx ry rz
    limits (-20.0 45.0)
           (-30.0 30.0)
           (-30.0 30.0)
  end
  begin
     id 13 
     name thorax
     direction 0.0131685 0.994241 0.106355   
     length 1.97461   
     axis 0 0 0   XYZ
    dof rx ry rz
    limits (-20.0 45.0)
           (-30.0 30.0)
           (-30.0 30.0)
  end
  begin
     id 14 
     name lowerneck
     direction -0.0281395 0.999325 0.023617   
     length 1.7959   
     axis 0 0 0   XYZ
    dof rx ry rz
    limits (-20.0 45.0)
           (-30.0 30.0)
           (-30.0 30.0)
  end
  begin
     id 15 
     name upperneck
     direction 0.0288721 0.991984 -0.123019   
     length 1.79917   
     axis 0 0 0   XYZ
    dof rx ry rz
    limits (-20.0 45.0)
           (-30.0 30.0)
           (-30.0 30.0)
  end
  begin
     id 16
     name head
     direction 0.0133797 0.998944 -0.0439492  
     length 1.80902  
     axis 0 0 0   XYZ
    dof rx ry rz
    limits (-20.0 45.0)
           (-30.0 30.0)
           (-30.0 30.0)
  end
  begin
     id 17 
     name lclavicle
     direction 0.919195 0.377107 0.113449  
     length 3.17815  
     axis 0 0 0   XYZ
    dof ry rz
    limits (-20.0 10.0)
           (0.0 20.0)
  end
  begin
     id 18 
     name lhumerus
     direction 1 -4.48959e-011 2.13129e-027   
     length 4.84137   
     axis 180 -30 -90   XYZ
    dof rx ry rz
    limits (-60.0 90.0)
           (-90.0 90.0)
           (-90.0 90.0)
  end
  begin
     id 19
     name lradius
     direction 1 -4.48957e-011 -6.30627e-028   
     length 3.2452   
     axis 180 -30 -90   XYZ
    dof rx
    limits (-10.0 170.0)
  end
  begin
     id 20
     name lwrist
     direction 1 -4.4901e-011 9.13299e-027   
     length 1.6226   
     axis -6.84618e-015 90 90   XYZ
    dof ry
    limits (-180.0 0.0)
 end
  begin
     id 21 
     name lhand
     direction 1 -4.48816e-011 1.82293e-026   
     length 0.521221   
     axis -1.16502e-014 90 90   XYZ
    dof rx rz
    limits (-90.0 90.0)
           (-45.0 45.0)
  end
  begin
     id 22 
     name lfingers
     direction 1 -4.49108e-011 3.65687e-026   
     length 0.420221   
     axis -2.33008e-014 90 90   XYZ
    dof rx
    limits (0.0 90.0)
  end
  begin
     id 23
     name lthumb
     direction 0.707107 -6.34943e-011 0.707107   
     length 0.603356   
     axis -90 45 5.69224e-014   XYZ
    dof rx rz
    limits (-45.0 45.0)
           (-45.0 45.0)
  end
  begin
     id 24 
     name rclavicle
     direction -0.90847 0.38596 0.160368   
     length 3.12973  
     axis 0 0 0   XYZ 
    dof ry rz
    limits (-10.0 20.0)
           (-20.0 0.0)
  end
  begin
     id 25 
     name rhumerus
     direction -1 -4.48974e-011 4.47268e-028  
     length 4.72284   
     axis 180 30 90   XYZ
    dof rx ry rz
    limits (-90.0 60.0)
           (-90.0 90.0)
           (-90.0 90.0)
  end
  begin
     id 26 
     name rradius
     direction -1 -4.48969e-011 3.43203e-027   
     length 3.23459   
     axis 180 30 90   XYZ
    dof rx
    limits (-10.0 170.0)
  end
  begin
     id 27 
     name rwrist
     direction -1 -4.48969e-011 9.12911e-027   
     length 1.6173   
     axis -6.84618e-015 -90 -90   XYZ
    dof ry
    limits (-180.0 0.0)
  end
  begin
     id 28
     name rhand
     direction -1 -4.49194e-011 1.83006e-026   
     length 0.307416   
     axis -1.16502e-014 -90 -90   XYZ
    dof rx rz
    limits (-90.0 90.0)
           (-45.0 45.0)
  end
  begin
     id 29
     name rfingers
     direction -1 -4.48423e-011 3.63103e-026   
     length 0.247847   
     axis -2.33008e-014 -90 -90   XYZ
    dof rx
    limits (0.0 90.0)
  end
  begin
     id 30
     name rthumb
     direction -0.707107 -6.34802e-011 0.707107   
     length 0.35586   
     axis -90 -45 -5.69224e-014   XYZ
    dof rx rz
    limits (-45.0 45.0)
           (-45.0 45.0)
  end
:hierarchy
  begin
    root lhipjoint rhipjoint lowerback
    lhipjoint lfemur
    lfemur ltibia
    ltibia lfoot
    lfoot ltoes
    rhipjoint rfemur
    rfemur rtibia
    rtibia rfoot
    rfoot rtoes
    lowerback upperback
    upperback thorax
    thorax lowerneck lclavicle rclavicle
    lowerneck upperneck
    upperneck head
    lclavicle lhumerus
    lhumerus lradius
    lradius lwrist
    lwrist lhand lthumb
    lhand lfingers
    rclavicle rhumerus
    rhumerus rradius
    rradius rwrist
    rwrist rhand rthumb
    rhand rfingers
  end

#!OML:ASF H:\Terrain\Patient Classification 1\Animal1\Tuesday\Animal1.ASF
:FULLY-SPECIFIED
:DEGREES
1
root 13.0744 16.6352 -12.3202 10.8489 -16.2352 -2.01816
lowerback -5.67269 0.190225 3.39259
upperback -6.72562 0.157269 1.44248
thorax -3.77486 -0.0493622 -0.403028
lowerneck -1.71707 4.34276 -3.24906
upperneck 17.0219 4.87643 8.11824
head 5.07514 2.68552 3.29781
rclavicle 3.27995e-014 -3.18055e-015
rhumerus -45.9373 25.0919 -103.579
rradius 28.612
rwrist -6.25378
rhand -14.9308 18.5267
rfingers 7.12502
rthumb 11.2315 -11.1526
lclavicle 3.27995e-014 -3.18055e-015
lhumerus -45.6362 -5.58513 92.6908
lradius 31.1747
lwrist -28.5127
lhand 11.045 41.5549
lfingers 7.12502
lthumb 36.1168 67.8427
rfemur -13.2814 37.6025 14.5062
rtibia 8.41458
rfoot -9.64355 -41.9979
rtoes 19.6724
lfemur -5.36638 -23.1839 -14.4255
ltibia 8.74113
lfoot -27.443 23.6148
ltoes 38.674
2
root 13.0726 16.6367 -12.3181 10.8598 -16.2565 -1.99041
lowerback -5.70084 0.154063 3.34352
upperback -6.71205 0.109545 1.48322
thorax -3.74617 -0.0696615 -0.33469
lowerneck -1.82098 4.39828 -3.2599
upperneck 17.1694 4.94046 8.16383
head 5.13274 2.72195 3.32342
rclavicle -5.53615e-014 -1.35174e-014
rhumerus -45.9949 25.2836 -103.628
rradius 28.6589
rwrist -6.24971
rhand -15.1487 18.4903
rfingers 7.12502
rthumb 11.0213 -11.2003
lclavicle -5.53615e-014 -1.35174e-014
lhumerus -45.621 -5.40874 92.6582
lradius 31.2226
lwrist -28.5239
lhand 11.1167 41.3682
lfingers 7.12502
lthumb 36.1848 67.6391
rfemur -13.3336 37.6159 14.4573
rtibia 8.47907
rfoot -9.24545 -42.0471
rtoes 18.4734
lfemur -5.34969 -23.1644 -14.4407
ltibia 8.68799
lfoot -27.4603 23.5728
ltoes 38.4428
3
root 13.0718 16.6363 -12.3223 10.979 -16.2407 -2.09049
lowerback -5.68192 0.153007 3.43867
upperback -6.75415 0.107865 1.50565
thorax -3.80177 -0.0753591 -0.364386
lowerneck -1.86032 4.39895 -3.26047
upperneck 17.32 4.92677 8.2119
head 5.18514 2.71998 3.34352
rclavicle -4.49253e-014 1.70955e-014
rhumerus -46.0476 25.345 -103.675
rradius 28.722
rwrist -6.23391
rhand -15.1439 18.6012
rfingers 7.12502
rthumb 11.0259 -11.0892
lclavicle -4.49253e-014 1.70955e-014
lhumerus -45.6484 -5.38006 92.6236
lradius 31.2617
lwrist -28.5561
lhand 11.1227 41.2697
lfingers 7.12502
lthumb 36.1904 67.5392
rfemur -13.2849 37.6116 14.4933
rtibia 8.10889
rfoot -9.28291 -42.0242
rtoes 18.4263
lfemur -5.62631 -23.1596 -14.3227
ltibia 8.98298
lfoot -27.5547 23.5025
ltoes 38.5127
4
root 13.0702 16.6352 -12.3287 11.1192 -16.2426 -2.2602
lowerback -5.63865 0.178971 3.61727
upperback -6.80157 0.141266 1.52124
thorax -3.87596 -0.067745 -0.44689
lowerneck -1.73861 4.38223 -3.23053
upperneck 17.2494 4.90334 8.20699
head 5.14498 2.70719 3.3306
rclavicle 3.3197e-014 1.31198e-014
rhumerus -46.0419 25.3022 -103.716
rradius 28.7202
rwrist -6.30475
rhand -15.1648 18.8305
rfingers 7.12502
rthumb 11.0058 -10.8609
lclavicle 3.3197e-014 1.31198e-014
lhumerus -45.6867 -5.4401 92.6048
lradius 31.3111
lwrist -28.4984
lhand 11.0008 41.424
lfingers 7.12502
lthumb 36.0749 67.722
rfemur -13.3763 37.6395 14.598
rtibia 7.96099
rfoot -9.13147 -42.0295
rtoes 18.6116
lfemur -5.82083 -23.1164 -14.0919
ltibia 9.08638
lfoot -27.5534 23.4514
ltoes 38.6547
5
root 13.0681 16.6357 -12.3294 11.191 -16.2011 -2.35986
lowerback -5.64934 0.205467 3.77204
upperback -6.8056 0.171709 1.50938
thorax -3.87402 -0.0596734 -0.544819
lowerneck -1.57469 4.34699 -3.236
upperneck 17.0015 4.8648 8.21065
head 5.04256 2.68333 3.31939
rclavicle 5.47652e-014 7.55382e-015
rhumerus -45.9874 25.1832 -103.708
rradius 28.6989
rwrist -6.39378
rhand -15.2529 18.7945
rfingers 7.12502
rthumb 10.9208 -10.9015
lclavicle 5.47652e-014 7.55382e-015
lhumerus -45.6995 -5.49822 92.5965
lradius 31.3838
lwrist -28.4394
lhand 10.9332 41.4188
lfingers 7.12502
lthumb 36.0109 67.7326
rfemur -13.4173 37.6186 14.6939
rtibia 7.9413
rfoot -8.97276 -42.0592
rtoes 18.6592
lfemur -5.86649 -23.1313 -13.9485
ltibia 9.06868
lfoot -27.3708 23.5764
ltoes 38.2094
6
root 13.0647 16.6366 -12.3286 11.2319 -16.182 -2.24348
lowerback -5.72573 0.226557 3.67511
upperback -6.80335 0.197167 1.45415
thorax -3.82725 -0.0433018 -0.547264
lowerneck -1.47182 4.30546 -3.20712
upperneck 16.7871 4.81579 8.20826
head 4.96288 2.65736 3.30313
rclavicle 3.2054e-014 1.78906e-014
rhumerus -45.9381 25.0672 -103.642
rradius 28.7397
rwrist -6.34917
rhand -15.1478 18.5631
rfingers 7.12502
rthumb 11.0222 -11.1275
lclavicle 3.2054e-014 1.78906e-014
lhumerus -45.6993 -5.52023 92.5715
lradius 31.4354
lwrist -28.5183
lhand 10.9635 41.3111
lfingers 7.12502
lthumb 36.0397 67.6178
rfemur -13.5127 37.5706 14.5306
rtibia 7.96571
rfoot -9.23293 -42.0588
rtoes 18.9608
lfemur -5.93285 -23.1617 -14.0067
ltibia 9.02692
lfoot -27.2308 23.7064
ltoes 38.1807
7
root 13.0613 16.6388 -12.3308 11.2984 -16.1811 -1.98464
lowerback -5.83709 0.218956 3.37946
upperback -6.81981 0.189096 1.4024
thorax -3.78101 -0.0352288 -0.435792
lowerneck -1.40903 4.29615 -3.29738
upperneck 16.6352 4.80052 8.31689
head 4.9002 2.64877 3.34521
rclavicle 8.99501e-015 -3.53837e-014
rhumerus -45.8574 24.9513 -103.506
rradius 28.7291
rwrist -6.12041
rhand -15.0655 18.5901
rfingers 7.12502
rthumb 11.1016 -11.0963
lclavicle 8.99501e-015 -3.53837e-014
lhumerus -45.6459 -5.53611 92.5715
lradius 31.419
lwrist -28.6048
lhand 11.0566 41.3482
lfingers 7.12502
lthumb 36.1278 67.6332
rfemur -13.751 37.5015 14.1547
rtibia 8.05108
rfoot -9.03934 -42.0885
rtoes 18.6158
lfemur -6.1072 -23.1937 -14.1596
ltibia 8.96299
lfoot -27.0516 23.8267
ltoes 38.2279
8
root 13.0583 16.6413 -12.3318 11.3376 -16.1354 -1.93851
lowerback -5.83654 0.164703 3.26614
upperback -6.82181 0.121638 1.46532
thorax -3.78517 -0.0625336 -0.309106
lowerneck -1.47298 4.35903 -3.4785
upperneck 16.6922 4.87591 8.46426
head 4.91372 2.68565 3.42691
rclavicle 5.41688e-015 2.42517e-014
rhumerus -45.806 24.9241 -103.353
rradius 28.7123
rwrist -5.83868
rhand -15.0007 18.7064
rfingers 7.12502
rthumb 11.1641 -10.9766
lclavicle 5.41688e-015 2.42517e-014
lhumerus -45.581 -5.41876 92.6035
lradius 31.3644
lwrist -28.6247
lhand 11.2025 41.2297
lfingers 7.12502
lthumb 36.266 67.4804
rfemur -13.9252 37.4473 14.1052
rtibia 8.30348
rfoot -9.24178 -42.0411
rtoes 18.6786
lfemur -6.1109 -23.2321 -14.1009
ltibia 8.75292
lfoot -26.8078 24.0247
ltoes 37.593
9
root 13.0557 16.6415 -12.3333 11.344 -16.125 -2.00762
lowerback -5.75129 0.114867 3.27322
upperback -6.81922 0.0611896 1.5597
thorax -3.83208 -0.0912874 -0.216858
lowerneck -1.6711 4.4845 -3.44938
upperneck 17.0129 5.03092 8.47301
head 5.03709 2.77019 3.44535
rclavicle 6.09772e-014 1.43125e-014
rhumerus -45.9245 25.1315 -103.383
rradius 28.8424
rwrist -5.91542
rhand -14.8887 18.5702
rfingers 7.12502
rthumb 11.2721 -11.1069
lclavicle 6.09772e-014 1.43125e-014
lhumerus -45.601 -5.26944 92.635
lradius 31.392
lwrist -28.5968
lhand 11.27 41.1041
lfingers 7.12502
lthumb 36.3299 67.3389
rfemur -14.0445 37.458 14.2137
rtibia 8.58713
rfoot -9.48448 -41.9978
rtoes 18.5538
lfemur -5.9883 -23.2184 -13.9587
ltibia 8.48746
lfoot -26.7065 24.1444
ltoes 37.1098
10
root 13.0544 16.64 -12.3349 11.3154 -16.1721 -1.95131
lowerback -5.68666 0.117759 3.22768
upperback -6.82256 0.0692962 1.55199
thorax -3.87121 -0.0858921 -0.199135
lowerneck -1.86168 4.55637 -3.4091
upperneck 17.3849 5.10322 8.52024
head 5.17951 2.81753 3.47292
rclavicle -3.49364e-014 -2.90226e-014
rhumerus -46.0245 25.0943 -103.402
rradius 28.9275
rwrist -5.9902
rhand -14.8603 18.6233
rfingers 7.12502
rthumb 11.2995 -11.0523
lclavicle -3.49364e-014 -2.90226e-014
lhumerus -45.6626 -5.23245 92.6173
lradius 31.5026
lwrist -28.6378
lhand 11.387 41.227
lfingers 7.12502
lthumb 36.4407 67.434
rfemur -14.1669 37.4918 14.1446
rtibia 8.81322
rfoot -9.45583 -42.0237
rtoes 17.9899
lfemur -5.87989 -23.1761 -13.9759
ltibia 8.27863
lfoot -26.7788 24.014
ltoes 37.602
11
root 13.0532 16.6395 -12.3337 11.2519 -16.2253 -1.80025
lowerback -5.67558 0.137616 3.12755
upperback -6.80425 0.097034 1.48429
thorax -3.85662 -0.0688598 -0.212742
lowerneck -1.82322 4.52377 -3.43687
upperneck 17.4038 5.05523 8.54298
head 5.18008 2.79312 3.48225
rclavicle 1.88845e-015 -9.54166e-015
rhumerus -45.96 24.8382 -103.285
rradius 28.8717
rwrist -5.828
rhand -14.7955 18.9911
rfingers 7.12502
rthumb 11.362 -10.6811
lclavicle 1.88845e-015 -9.54166e-015
lhumerus -45.6993 -5.2332 92.5864
lradius 31.5925
lwrist -28.6869
lhand 11.5866 41.4982
lfingers 7.12502
lthumb 36.6296 67.6575
rfemur -14.2422 37.5121 13.9799
rtibia 8.99894
rfoot -9.8788 -41.9961
rtoes 18.2445
lfemur -5.75454 -23.149 -14.1104
ltibia 8.09358
lfoot -26.8089 23.8273
ltoes 38.5798
12
root 13.0506 16.6409 -12.3306 11.2371 -16.2382 -1.64939
lowerback -5.76542 0.13056 2.99485
upperback -6.76357 0.0853344 1.43958
thorax -3.76303 -0.0685241 -0.185421
lowerneck -1.76947 4.49067 -3.42664
upperneck 17.2912 5.01784 8.51623
head 5.13969 2.77173 3.46581
rclavicle -6.46547e-014 -1.03368e-014
rhumerus -45.9018 24.8622 -103.255
rradius 28.8954
rwrist -5.81727
rhand -14.6748 18.9676
rfingers 7.12502
rthumb 11.4784 -10.6981
lclavicle -6.46547e-014 -1.03368e-014
lhumerus -45.6857 -5.26825 92.6188
lradius 31.6327
lwrist -28.6673
lhand 12.0346 42.2418
lfingers 7.12502
lthumb 37.0534 68.2925
rfemur -14.3194 37.4916 13.8056
rtibia 9.0913
rfoot -10.3414 -41.9192
rtoes 19.2048
lfemur -5.71339 -23.1583 -14.2281
ltibia 7.95951
lfoot -26.6907 23.8237
ltoes 38.7904
13
root 13.0483 16.6428 -12.3307 11.2961 -16.1845 -1.71732
lowerback -5.79869 0.109155 3.07156
upperback -6.7497 0.0531469 1.45542
thorax -3.73112 -0.0870996 -0.212762
lowerneck -1.85138 4.5119 -3.49973
upperneck 17.3643 5.02501 8.68149
head 5.16783 2.78335 3.53437
rclavicle 1.6201e-014 2.70347e-014
rhumerus -45.8834 24.9579 -103.298
rradius 28.9507
rwrist -5.87573
rhand -14.6222 18.6051
rfingers 7.12502
rthumb 11.5292 -11.0578
lclavicle 1.6201e-014 2.70347e-014
lhumerus -45.6524 -5.30484 92.6297
lradius 31.6067
lwrist -28.6595
lhand 12.2565 42.7696
lfingers 7.12502
lthumb 37.2633 68.7656
rfemur -14.3592 37.4527 13.877
rtibia 9.08699
rfoot -10.3852 -41.9097
rtoes 19.7786
lfemur -5.7563 -23.1898 -14.1003
ltibia 7.91593
lfoot -26.598 23.9071
ltoes 38.1486
